<svg width="158" height="27" viewBox="0 0 158 27" fill="none" xmlns="http://www.w3.org/2000/svg">
<g filter="url(#filter0_d_1_142)">
<path d="M5.99395 1.46672H4.66431C4.4981 0.313218 4.58121 0.06604 8.48702 0.06604H13.9718C21.7834 0.06604 25.1075 3.52653 25.1075 9.29402C25.1075 14.8143 21.9496 18.522 14.2211 18.522H4.08259C3.99949 18.1925 3.99949 17.7805 4.08259 17.4509C6.99117 17.2861 7.48979 17.1213 7.48979 15.3087V2.62021C7.48979 1.6315 7.15738 1.46672 5.99395 1.46672ZM21.5341 9.7884C21.5341 4.68003 18.8748 1.6315 13.6393 1.6315H10.8139V15.0615C10.8139 16.7093 11.3956 16.9565 13.8887 16.9565C18.5424 17.039 21.5341 15.5559 21.5341 9.7884Z" fill="#1D1D1B"/>
<path d="M38.1547 0.230957C38.2378 0.807705 38.404 1.30207 38.8195 2.20838L45.0522 16.2976C45.3846 16.9567 45.6339 17.2039 47.0466 17.2039H47.6284C47.7945 17.9454 47.6284 18.4397 46.9636 18.4397H38.2378C38.1547 18.1926 38.1547 17.7806 38.2378 17.3686C41.1463 17.2862 41.4788 17.0391 41.1463 16.3799L39.4844 12.3426H32.5037L31.4234 15.2264C30.8417 16.7919 30.8417 17.2039 32.2545 17.2039H34.5812C34.7475 17.9454 34.5812 18.4397 33.9164 18.4397H26.1879C26.1048 18.1926 26.1048 17.7806 26.1879 17.3686C28.2655 17.1214 28.5148 16.9567 29.2628 15.2264L34.5812 2.70274C35.4954 0.64292 35.8279 0.230957 37.0744 0.230957H38.1547ZM38.8195 10.942L35.911 4.02102L33.0854 10.942H38.8195Z" fill="#1D1D1B"/>
<path d="M58.3492 0.560791C58.4323 0.807969 58.4323 1.30232 58.3492 1.6319C56.0223 1.79668 55.6899 2.29104 55.6899 3.44453V16.133C55.6899 17.0394 55.9392 17.2865 57.1027 17.2865H58.5985C58.7647 18.028 58.6816 18.5224 57.9337 18.5224H49.7065C49.6234 18.2752 49.6234 17.8632 49.7065 17.4513C51.8672 17.1217 52.3658 16.8745 52.3658 15.7211V2.95018C52.3658 1.96147 52.1165 1.79668 50.8699 1.79668H49.5403C49.3741 1.13754 49.5403 0.560791 50.7037 0.560791H58.3492Z" fill="#1D1D1B"/>
<path d="M89.43 0.560791C89.5131 0.890362 89.5131 1.21993 89.43 1.6319C86.937 1.79668 86.7708 2.20865 86.8539 3.03257L88.1835 16.133C88.2666 16.9569 88.6821 17.0394 90.7597 17.3689C90.8428 18.1104 90.7596 18.6048 90.0117 18.6048H80.455C80.3719 18.2752 80.3719 17.9457 80.455 17.5337L81.9509 17.4512C84.1946 17.2865 84.6101 17.0394 84.4439 15.7211L83.1974 3.93889L76.7154 17.4512C76.2167 18.44 76.0506 18.6048 75.3858 18.6048L67.9065 4.02129L67.0755 16.0506C66.9924 17.1217 66.9924 17.3689 69.8179 17.3689H71.3137C71.4799 18.1104 71.3968 18.6048 70.6489 18.6048H61.7569C61.6738 18.2752 61.6738 17.9457 61.7569 17.5337C64.7486 17.3689 64.998 16.8745 65.0811 15.7211L66.1613 3.11497C66.2445 2.29104 66.0782 1.96147 63.419 1.87907C63.2528 1.30232 63.419 0.643183 64.5824 0.643183H70.0672L76.8815 13.4964L83.1143 0.643183H89.43V0.560791Z" fill="#1D1D1B"/>
<path d="M104.304 0.560791C104.387 0.807969 104.387 1.30232 104.304 1.6319C101.478 1.79668 100.897 2.04386 100.897 3.77411V15.6386C100.897 16.5449 101.395 16.7922 102.143 16.7922H103.889C105.883 16.7922 106.132 16.6274 107.295 14.2379L108.043 12.5901C108.792 12.5901 109.207 12.9197 108.958 13.7436C108.376 15.3091 107.877 16.8745 107.545 18.5224H94.3317C94.2486 18.1929 94.2486 17.8632 94.3317 17.4513C96.991 17.2865 97.5728 16.9569 97.5728 15.2267V2.95018C97.5728 1.96147 97.2403 1.79668 96.0769 1.79668H94.7473C94.5811 1.13754 94.7473 0.560791 95.9107 0.560791H104.304Z" fill="#1D1D1B"/>
<path d="M126.244 0.56066C126.327 1.79655 126.494 3.03244 126.66 4.18594C126.826 5.00987 126.494 5.50422 125.58 5.42183L125.33 4.18594C124.832 2.53808 124.333 2.12612 122.838 2.12612H118.516V8.96471H121.342C122.173 8.96471 122.339 8.71753 122.422 7.976L122.588 6.57533H122.921C123.419 6.57533 123.752 6.74011 123.668 7.56403C123.585 9.21189 123.585 11.1069 123.668 12.8372C123.419 12.9195 123.004 13.002 122.755 12.8372C122.422 10.7774 122.09 10.5302 121.342 10.5302H118.516V15.2265C118.516 16.2153 118.765 16.6273 120.593 16.6273H122.921C124.915 16.6273 125.164 16.4625 126.327 14.073L127.076 12.4252C127.824 12.4252 128.239 12.7547 127.99 13.5787C127.408 15.1442 126.909 16.7096 126.577 18.3575H111.702C111.619 18.0279 111.619 17.6983 111.702 17.2863C114.527 17.1216 115.109 16.9568 115.109 15.1442V2.78526C115.109 1.79655 114.859 1.63176 113.613 1.63176H112.283C112.2 0.972623 112.283 0.395874 113.447 0.395874H126.244V0.56066Z" fill="#1D1D1B"/>
<path d="M132.892 1.79655H131.563C131.397 1.13741 131.563 0.56066 132.643 0.478267C133.973 0.395874 135.552 0.395874 139.375 0.395874C144.527 0.395874 147.436 2.86766 147.436 6.49293C147.436 8.71754 146.023 10.5302 143.779 11.5189C143.779 11.5189 145.774 13.3315 146.854 14.1555C150.427 16.9568 151.591 17.204 153.918 17.204C154.167 18.1103 153.502 18.8518 150.593 18.8518C148.101 18.8518 146.439 18.2751 144.444 16.6272C143.53 15.8857 142.616 14.8146 141.868 13.5787C141.203 12.3428 141.12 12.2604 139.458 12.2604H137.796V16.2153C137.796 16.9568 138.045 17.2863 139.458 17.2863H140.871C140.954 18.0279 140.871 18.5223 140.123 18.5223H131.646C131.563 18.1927 131.563 17.8631 131.646 17.4511C133.973 17.2863 134.555 17.0392 134.555 15.3913V3.03244C134.389 1.96134 134.057 1.79655 132.892 1.79655ZM139.042 10.7774C141.702 10.7774 143.862 10.3654 143.862 6.74011C143.862 3.11484 141.702 1.96134 138.626 1.96134H137.796V10.7774H139.042Z" fill="#1D1D1B"/>
</g>
<defs>
<filter id="filter0_d_1_142" x="0" y="0" width="158" height="27" filterUnits="userSpaceOnUse" color-interpolation-filters="sRGB">
<feFlood flood-opacity="0" result="BackgroundImageFix"/>
<feColorMatrix in="SourceAlpha" type="matrix" values="0 0 0 0 0 0 0 0 0 0 0 0 0 0 0 0 0 0 127 0" result="hardAlpha"/>
<feOffset dy="4"/>
<feGaussianBlur stdDeviation="2"/>
<feComposite in2="hardAlpha" operator="out"/>
<feColorMatrix type="matrix" values="0 0 0 0 0 0 0 0 0 0 0 0 0 0 0 0 0 0 0.25 0"/>
<feBlend mode="normal" in2="BackgroundImageFix" result="effect1_dropShadow_1_142"/>
<feBlend mode="normal" in="SourceGraphic" in2="effect1_dropShadow_1_142" result="shape"/>
</filter>
</defs>
</svg>
